<svg xmlns:xlink="http://www.w3.org/1999/xlink"
    xmlns="http://www.w3.org/2000/svg" id="Layer_1" viewBox="0 0 35 35" width="50" height="50">
    <defs>
        <style>.cls-1{fill:#000;}</style>
    </defs>
    <path class="cls-1" d="M34.26,19.69c-.89-1.43-2.41-2.17-4.04-2.35,.47-2.2-1.15-4.49-3.19-5.36-.02-.01-.04-.02-.06-.03-1.15-.51-2.41-.52-3.54-.13-.16,.04-.32,.09-.49,.15-.04,.01-.08,.03-.11,.04-.06,.02-.11,.05-.15,.08,.04-.03,.09-.06,.15-.08,.04-.01,.08-.03,.11-.04-.77-1.64-2.2-2.86-3.97-3.36-1.78-.51-3.84-.27-5.36,.85-.86,.63-1.48,1.46-1.9,2.42-.08-.02-.17-.05-.26-.07-1.12-.37-2.35-.35-3.48,.15-.03,.01-.05,.03-.07,.04-.28,.11-.54,.25-.8,.42-1.19,.78-2.11,2.06-2.35,3.48-.08,.49-.09,.98,0,1.45-1.7,.19-3.3,.99-4.16,2.54-.78,1.41-.84,3.18-.15,4.63,.32,.68,.85,1.28,1.5,1.65,.33,.19,.62,.29,.98,.37,.32,.07,1.04,.1,1.37,.11,2.34,.01,4.68,.01,7.03,.01,2.56,0,5.12,0,7.68,0,0,0,0,0,0,0,2.42,0,4.85,.01,7.27,0,1.22,0,2.44,0,3.67,0,.57,0,2.01,0,2.48-.21,2.67-.97,3.2-4.53,1.82-6.75ZM7.4,13.45c-.06-.21-.31-.34-.53-.33,.22-.01,.47,.11,.53,.33Zm-.7-.28c-.23,.11-.31,.35-.28,.6,.01,.08,.03,.15,.04,.23-.02-.08-.03-.15-.04-.23-.04-.25,.05-.5,.28-.6Zm9.07,12.01c-1.99-.75-3.31-2.63-3.33-4.76,.02-2.36,1.7-4.51,4.05-4.96,2.09-.4,4.24,.52,5.35,2.35,1.11,1.84,.89,4.2-.45,5.85-1.32,1.62-3.66,2.25-5.61,1.52Zm18.14-2.06c-.11,.58-.27,.98-.62,1.45,0,0-.02,.03-.07,.09-.04,.04-.08,.09-.12,.13-.1,.11-.21,.21-.33,.3-.04,.03-.27,.2-.45,.28,0,0,0-.01,0-.02,0-1.14-.32-2.31-1.01-3.21-.82-1.08-2.11-1.68-3.46-1.41-.65,.13-.38,1.13,.27,1,.99-.19,1.95,.38,2.47,1.19,.52,.79,.72,1.74,.68,2.67-.39,.02-.79,0-1.22,0-1.13,0-2.94,0-4.06,0,0,0-.01,0-.02,0,.36-.36,.84-1.12,.98-1.93,.12-.65-.82-.92-1-.27-.24,.89-.86,1.84-1.35,2.2h-1.01c-.97,0-1.95,0-2.92,0,1.72-1.07,2.86-2.96,2.86-5.13,0-3.34-2.7-6.04-6.04-6.04s-6.04,2.7-6.04,6.04c0,2.17,1.15,4.07,2.87,5.14h-.82s-2.93,0-2.93,0c-.72-.51-1.34-1.43-1.56-2.21-.18-.64-1.19-.37-1,.27,.21,.71,.57,1.43,1.13,1.93-1.16,0-2.32,0-3.48,0-.45,0-.91,0-1.36,0-.18,0-.4,0-.6,0h0c-.04-.93,.16-1.88,.68-2.67,.53-.81,1.49-1.39,2.47-1.19,.65,.13,.93-.87,.27-1-1.35-.27-2.64,.33-3.46,1.41-.69,.91-1.01,2.08-1.01,3.22-.34-.16-.63-.39-.91-.72-.06-.07-.15-.2-.24-.35-.04-.07-.08-.13-.11-.2-.02-.04-.1-.2-.09-.19-.13-.31-.22-.64-.27-.97,0,0-.01-.08-.02-.15,0-.09-.01-.18-.02-.27,0-.18,0-.36,.01-.54,.02-.29,.1-.64,.21-.99,.24-.7,.73-1.39,1.36-1.83,.84-.59,1.84-.82,2.85-.84,.42,0,.6-.43,.45-.78-.16-.37-.21-.88-.15-1.34,.07-.52,.28-1.06,.56-1.53,.07-.11,.14-.22,.22-.33-.01-.04-.02-.09-.03-.14,.01,.05,.02,.09,.03,.14,.15,.51,.41,.97,.8,1.35,.44,.43,.98,.76,1.55,.97,.03-.08,.08-.16,.11-.24-.04,.08-.08,.15-.11,.24-.27,.67-.38,1.42-.3,2.09,.03,.28,.21,.52,.52,.52,.25,0,.55-.24,.52-.52-.15-1.24,.42-2.68,1.62-3.19,.26-.11,.31-.49,.19-.71-.15-.27-.45-.29-.71-.19-.53,.23-.98,.61-1.33,1.08-.05,.07-.09,.15-.14,.22,.05-.07,.09-.15,.14-.22-.03-.01-.06-.03-.09-.04-.46-.15-.89-.41-1.24-.75-.42-.41-.58-.91-.66-1.48,0,0,0-.02,0-.03,0,0,0,0,0,0,.55-.42,1.19-.7,1.89-.81,.67-.1,1.34-.03,1.98,.14,.58,.21,1.11,.56,1.53,1.05,.44,.51,1.33-.07,.88-.58-.31-.36-.66-.66-1.05-.91,.6-1.5,1.87-2.55,3.45-2.88,1.52-.32,3.18,.07,4.42,1.01,.69,.53,1.23,1.24,1.57,2.04-.29,.22-.56,.46-.8,.74-.45,.52,.44,1.1,.88,.58,.4-.46,.9-.8,1.44-1.01,.92-.25,1.87-.29,2.76-.01,.08,.03,.16,.06,.24,.09,.04,.02,.08,.03,.12,.04,.19,.08,.39,.18,.57,.3,.1,.07,.2,.14,.3,.21,.03-.12,.12-.22,.23-.28-.11,.06-.2,.16-.23,.28,0,0,0,.02,0,.03-.08,.57-.24,1.07-.66,1.48-.35,.34-.78,.6-1.24,.75-.03,.01-.06,.02-.09,.04,.2,.28,.37,.59,.51,.91,.58-.21,1.11-.54,1.55-.97,.39-.38,.65-.84,.8-1.35,.03-.09,.05-.19,.07-.29-.02,.1-.05,.19-.07,.29,.37,.5,.63,1.07,.75,1.68,.1,.49,.07,1.1-.11,1.51-.16,.35,.02,.77,.45,.78,1.4,.03,2.84,.52,3.65,1.62,.37,.5,.57,.97,.7,1.58,.06,.27,.08,.48,.08,.81,0,.31-.02,.56-.07,.79Zm-15.68-4.34c.02,.66,.54,1.21,1.21,1.21,.66,0,1.21-.55,1.21-1.21s-.55-1.21-1.21-1.21-1.19,.55-1.21,1.21Zm2.98,1.09c-.05,.09-.11,.17-.17,.25-.37,.45-.94,.72-1.51,.74h0c-.07,.32-.22,.63-.43,.89-.56,.67-1.52,.94-2.34,.64-.83-.3-1.39-1.1-1.4-1.99,0-.11,.01-.23,.03-.34,.13-.85,.82-1.57,1.66-1.73,.13-.03,.26-.04,.39-.04h0c.16-.63,.61-1.17,1.21-1.42-.78-.25-1.63-.25-2.45,.05-1.46,.52-2.43,1.98-2.45,3.52,.02,1.79,1.28,3.33,3.05,3.69,1.52,.31,3.14-.43,3.93-1.77,.44-.74,.6-1.63,.48-2.48Zm3.07-5.19c-.26-.11-.55-.08-.71,.19-.13,.22-.07,.6,.19,.71,1.21,.51,1.78,1.95,1.62,3.19-.03,.28,.26,.52,.52,.52,.31,0,.48-.24,.52-.52,.08-.68-.03-1.42-.3-2.09-.13-.32-.3-.63-.51-.91-.35-.47-.8-.86-1.33-1.08Z"/>
</svg>