<svg xmlns="http://www.w3.org/2000/svg" xmlns:xlink="http://www.w3.org/1999/xlink" xmlns:svgjs="http://svgjs.com/svgjs" id="capsuleLoader" width="288" height="288" version="1.1"><defs id="SvgjsDefs1002"/><g id="SvgjsG1008" transform="matrix(1,0,0,1,0,0)"><svg xmlns="http://www.w3.org/2000/svg" width="288" height="288" viewBox="0 0 1024 1024"><path d="M512 966.705c-104.364 0-189.247-87.686-189.247-195.452v-392.304h378.495v392.304c0 107.766-84.884 195.452-189.247 195.452zM512 57.273c104.364 0 189.247 87.708 189.247 195.43v109.545h-378.495v-109.545c0-107.722 84.884-195.43 189.247-195.43zM512 11.641c-128.693 0-233.501 108.145-233.501 241.062v518.551c0 132.94 104.786 241.106 233.501 241.106 128.759 0 233.501-108.167 233.501-241.106v-518.551c0-132.918-104.742-241.062-233.501-241.062z" fill="#259953" class="color000 svgShape"/></svg></g></svg>