<svg xmlns="http://www.w3.org/2000/svg" xmlns:xlink="http://www.w3.org/1999/xlink" version="1.1" id="Layer_1" x="0px" y="0px" viewBox="0 0 355.4 55.6" style="enable-background:new 0 0 355.4 55.6;" xml:space="preserve" width="300"  height="55.6" >
<path d="M52.4,12.7c7.4,0,13.1,5.8,13.1,14.7s-5.8,14.9-13.1,14.9c-3.7,0.1-7.2-1.6-9.5-4.5v17.8h-7.3V13.1h7.3v4.2  C45.1,14.3,48.7,12.6,52.4,12.7 M50.5,19c-3.9,0-7.6,3-7.6,8.5s3.7,8.5,7.6,8.5s7.6-3.2,7.6-8.6S54.4,19,50.5,19"/>
<path d="M173.5,12.7c3.7,0,7.1,1.6,9.4,4.5V0.9h7.4v41h-7.4v-4.3c-2.1,3.1-5.7,4.9-9.4,4.7c-7.3,0-13.1-6-13.1-14.9  S166.1,12.7,173.5,12.7 M175.3,19c-3.9,0-7.6,2.9-7.6,8.4s3.7,8.6,7.6,8.6s7.6-3,7.6-8.5S179.3,19,175.3,19"/>
<path d="M237.5,0.9h8v15.8c2.1-3.1,5-4.1,8.9-4.1c6.5,0,10.8,4.5,10.8,12.4v16.9H257V26c0-4.6-2.2-6.5-5.5-6.4c-3.9,0-6,2.5-6,7.1  v15.2h-8L237.5,0.9z"/>
<rect x="115.9" y="0.9" width="7.6" height="41"/>
<rect x="102.8" y="13.2" width="7.6" height="28.6"/>
<path d="M101.7,5.1c-0.1-2.7,2-5,4.7-5.1c2.7-0.1,5,2,5.1,4.7c0.1,2.7-2,5-4.7,5.1c-0.1,0-0.1,0-0.2,0c-2.6,0.1-4.7-1.9-4.9-4.4  C101.7,5.3,101.7,5.2,101.7,5.1"/>
<rect x="284.5" y="0.9" width="7.6" height="41"/>
<rect x="271.3" y="13.2" width="7.6" height="28.6"/>
<path d="M270.3,5.1c-0.1-2.7,2-5,4.7-5.1c2.7-0.1,5,2,5.1,4.7c0.1,2.7-2,5-4.7,5.1c-0.1,0-0.1,0-0.2,0c-2.6,0.1-4.7-1.8-4.9-4.4  C270.3,5.3,270.3,5.2,270.3,5.1"/>
<path d="M309.8,12.7c3.7,0,7.1,1.6,9.4,4.5V0.9h7.9v41h-7.9v-4.3c-2.1,3.1-5.7,4.9-9.5,4.7c-7.3,0-13.1-6-13.1-14.9  S302.4,12.7,309.8,12.7 M311.6,19c-3.9,0-7.6,2.9-7.6,8.4s3.7,8.6,7.6,8.6s7.6-3,7.6-8.5S315.6,19,311.6,19"/>
<path d="M215.5,0.6c9.2,0,16.7,5.8,19,13.5l-7.9,2.6c-1.3-4.4-5.1-8.7-11.1-8.8c-7.2-0.1-12.2,5.2-12.2,13.5s5.1,13.7,12.2,13.5  c4.9,0,9.2-3.1,10.9-7.7l7.7,2.8c-2.8,6.8-9.4,12-18.5,12.2c-11.8,0.2-20.7-8.6-20.7-20.9S203.8,0.6,215.5,0.6"/>
<path d="M149.2,32.5c-0.9,1.9-3.4,3.4-6.5,3.4c-3.6,0-7.3-2.3-7.7-6.5h22.4c0.1-0.6,0.1-1.2,0.1-1.8c0-8.2-6.7-14.9-15-14.8  s-14.9,6.7-14.8,15c0,8.2,6.7,14.9,15,14.8c6.3,0,11.9-4,14-10L149.2,32.5z M142.6,18.9c3.7,0,7.4,2.3,7.5,6.1h-15.1  C135.6,21.1,139.3,18.9,142.6,18.9z"/>
<path d="M83.4,12.6c-8.3,0-14.9,6.7-14.9,14.9c0,8.3,6.7,14.9,14.9,14.9c8.3,0,14.9-6.7,14.9-14.9c0,0,0,0,0,0  C98.4,19.3,91.7,12.6,83.4,12.6C83.4,12.6,83.4,12.6,83.4,12.6z M83.2,36c-3.9,0-7.2-2.8-7.2-8.5s3.5-8.5,7.3-8.5s7.4,2.8,7.4,8.5  S87,36,83.2,36z"/>
<path d="M8,26.8c1,5.6,4.3,8.3,9.2,8.3c3.6,0,6.3-1.5,6.3-4.1c0-2.8-1.9-4.2-8.6-6.5c-4.6-1.5-8-3.3-9.9-5.2c-1.9-1.9-3-4.6-2.9-7.3  C2,5.4,7.6,0.8,15.6,0.8S28.7,5.2,31.5,11L24,13.8c-1.7-3.4-5.3-5.7-8.5-5.6s-5.1,1.7-5.1,3.9c0,2.1,1.7,3.2,7.7,5.2  c5,1.7,8.5,3.6,10.7,5.7c2.1,2.1,3.3,5,3.2,8c0,6.9-6.1,11.6-14.8,11.6c-8.9,0-15.5-5.3-16.8-13.8L8,26.8z"/>
<path d="M336.7,2.4h-3.5V0.9h8.7v1.6h-3.5v9.9h-1.7V2.4z"/>
<path d="M343.7,0.9h2.1l3.5,8.7l0,0l3.6-8.7h2.1v11.5h-1.7V3.7l0,0l-3.6,8.6H349l-3.6-8.6l0,0v8.6h-1.7L343.7,0.9z"/>
</svg>